<svg viewBox="0 0 32 32" fill="none" xmlns="http://www.w3.org/2000/svg">
  <path
    d="M12.8 17.6H1.6C1.17565 17.6 0.768687 17.7686 0.468629 18.0686C0.168571 18.3687 0 18.7757 0 19.2V30.4C0 30.8243 0.168571 31.2313 0.468629 31.5314C0.768687 31.8314 1.17565 32 1.6 32H12.8C13.2243 32 13.6313 31.8314 13.9314 31.5314C14.2314 31.2313 14.4 30.8243 14.4 30.4V19.2C14.4 18.7757 14.2314 18.3687 13.9314 18.0686C13.6313 17.7686 13.2243 17.6 12.8 17.6ZM11.2 28.8H3.2V20.8H11.2V28.8ZM30.4 0H19.2C18.7757 0 18.3687 0.168571 18.0686 0.468629C17.7686 0.768687 17.6 1.17565 17.6 1.6V12.8C17.6 13.2243 17.7686 13.6313 18.0686 13.9314C18.3687 14.2314 18.7757 14.4 19.2 14.4H30.4C30.8243 14.4 31.2313 14.2314 31.5314 13.9314C31.8314 13.6313 32 13.2243 32 12.8V1.6C32 1.17565 31.8314 0.768687 31.5314 0.468629C31.2313 0.168571 30.8243 0 30.4 0ZM28.8 11.2H20.8V3.2H28.8V11.2ZM30.4 17.6H19.2C18.7757 17.6 18.3687 17.7686 18.0686 18.0686C17.7686 18.3687 17.6 18.7757 17.6 19.2V30.4C17.6 30.8243 17.7686 31.2313 18.0686 31.5314C18.3687 31.8314 18.7757 32 19.2 32H30.4C30.8243 32 31.2313 31.8314 31.5314 31.5314C31.8314 31.2313 32 30.8243 32 30.4V19.2C32 18.7757 31.8314 18.3687 31.5314 18.0686C31.2313 17.7686 30.8243 17.6 30.4 17.6ZM28.8 28.8H20.8V20.8H28.8V28.8ZM12.8 0H1.6C1.17565 0 0.768687 0.168571 0.468629 0.468629C0.168571 0.768687 0 1.17565 0 1.6V12.8C0 13.2243 0.168571 13.6313 0.468629 13.9314C0.768687 14.2314 1.17565 14.4 1.6 14.4H12.8C13.2243 14.4 13.6313 14.2314 13.9314 13.9314C14.2314 13.6313 14.4 13.2243 14.4 12.8V1.6C14.4 1.17565 14.2314 0.768687 13.9314 0.468629C13.6313 0.168571 13.2243 0 12.8 0ZM11.2 11.2H3.2V3.2H11.2V11.2Z"
    fill="white"
  ></path>
</svg>
