<svg viewBox="0 0 29 29" fill="none" xmlns="http://www.w3.org/2000/svg"><rect width="29" height="29" rx="6" fill="white"></rect><path d="M19.1319 16.3528V21.9111V16.3528ZM16.3528 19.1319H21.9111H16.3528ZM8.94167 12.6472H10.7944C11.2858 12.6472 11.7571 12.452 12.1046 12.1045C12.452 11.7571 12.6472 11.2858 12.6472 10.7944V8.94164C12.6472 8.45026 12.452 7.979 12.1046 7.63153C11.7571 7.28407 11.2858 7.08887 10.7944 7.08887H8.94167C8.45028 7.08887 7.97902 7.28407 7.63156 7.63153C7.28409 7.979 7.08889 8.45026 7.08889 8.94164V10.7944C7.08889 11.2858 7.28409 11.7571 7.63156 12.1045C7.97902 12.452 8.45028 12.6472 8.94167 12.6472ZM18.2056 12.6472H20.0583C20.5497 12.6472 21.021 12.452 21.3684 12.1045C21.7159 11.7571 21.9111 11.2858 21.9111 10.7944V8.94164C21.9111 8.45026 21.7159 7.979 21.3684 7.63153C21.021 7.28407 20.5497 7.08887 20.0583 7.08887H18.2056C17.7142 7.08887 17.2429 7.28407 16.8954 7.63153C16.548 7.979 16.3528 8.45026 16.3528 8.94164V10.7944C16.3528 11.2858 16.548 11.7571 16.8954 12.1045C17.2429 12.452 17.7142 12.6472 18.2056 12.6472ZM8.94167 21.9111H10.7944C11.2858 21.9111 11.7571 21.7159 12.1046 21.3684C12.452 21.021 12.6472 20.5497 12.6472 20.0583V18.2055C12.6472 17.7141 12.452 17.2429 12.1046 16.8954C11.7571 16.548 11.2858 16.3528 10.7944 16.3528H8.94167C8.45028 16.3528 7.97902 16.548 7.63156 16.8954C7.28409 17.2429 7.08889 17.7141 7.08889 18.2055V20.0583C7.08889 20.5497 7.28409 21.021 7.63156 21.3684C7.97902 21.7159 8.45028 21.9111 8.94167 21.9111Z" stroke="#00425F" stroke-width="2" stroke-linecap="round" stroke-linejoin="round"></path></svg>