<svg viewBox="0 0 32 33" fill="none" xmlns="http://www.w3.org/2000/svg"><path fill-rule="evenodd" clip-rule="evenodd" d="M25.6 16.0064H30.4C30.8243 16.0064 31.2313 16.1749 31.5314 16.475C31.8314 16.775 32 17.182 32 17.6064V27.2064C32 28.4794 31.4943 29.7003 30.5941 30.6005C29.6939 31.5006 28.473 32.0063 27.2 32.0063H4.80001C3.52697 32.0063 2.30607 31.5006 1.4059 30.6005C0.505725 29.7003 1.26126e-05 28.4794 1.26126e-05 27.2064V1.60636C-0.00110669 1.32442 0.0722924 1.0472 0.212778 0.802753C0.353263 0.558308 0.555845 0.355326 0.800012 0.214359C1.04324 0.0739301 1.31915 0 1.60001 0C1.88087 0 2.15678 0.0739301 2.40001 0.214359L7.20001 2.96636L12 0.214359C12.2432 0.0739301 12.5191 0 12.8 0C13.0809 0 13.3568 0.0739301 13.6 0.214359L18.4 2.96636L23.2 0.214359C23.4432 0.0739301 23.7191 0 24 0C24.2809 0 24.5568 0.0739301 24.8 0.214359C25.0442 0.355326 25.2468 0.558308 25.3872 0.802753C25.5277 1.0472 25.6011 1.32442 25.6 1.60636V16.0064ZM3.66864 28.3377C3.9687 28.6378 4.37566 28.8063 4.80001 28.8063H22.688C22.5017 28.2933 22.4043 27.7522 22.4 27.2064V4.37436L19.2 6.19836C18.9531 6.32734 18.6786 6.3947 18.4 6.3947C18.1214 6.3947 17.8469 6.32734 17.6 6.19836L12.8 3.44636L8.00001 6.19836C7.75307 6.32734 7.47861 6.3947 7.20001 6.3947C6.92142 6.3947 6.64695 6.32734 6.40001 6.19836L3.20001 4.37436V27.2064C3.20001 27.6307 3.36858 28.0377 3.66864 28.3377ZM28.3314 28.3377C28.6314 28.0377 28.8 27.6307 28.8 27.2064V19.2064H25.6V27.2064C25.6 27.6307 25.7686 28.0377 26.0686 28.3377C26.3687 28.6378 26.7757 28.8063 27.2 28.8063C27.6243 28.8063 28.0313 28.6378 28.3314 28.3377ZM10.338 10.7782C10.1468 10.4435 9.75434 10.2795 9.38183 10.3784C9.00933 10.4773 8.75 10.8145 8.75 11.1999V13.7623H8C7.64792 13.7623 7.3625 14.0477 7.3625 14.3998C7.3625 14.7519 7.64792 15.0373 8 15.0373H8.75V18.5624H8C7.64792 18.5624 7.3625 18.8478 7.3625 19.1999C7.3625 19.552 7.64792 19.8374 8 19.8374H8.75V22.3999C8.75 22.8693 9.13056 23.2499 9.6 23.2499C10.0694 23.2499 10.45 22.8693 10.45 22.3999V19.8374L13.5567 19.8374L15.262 22.8216C15.4532 23.1563 15.8457 23.3203 16.2182 23.2214C16.5907 23.1225 16.85 22.7853 16.85 22.3999V19.8374H17.6C17.9521 19.8374 18.2375 19.552 18.2375 19.1999C18.2375 18.8478 17.9521 18.5624 17.6 18.5624H16.85V15.0373H17.6C17.9521 15.0373 18.2375 14.7519 18.2375 14.3998C18.2375 14.0477 17.9521 13.7623 17.6 13.7623H16.85V11.1999C16.85 10.7305 16.4694 10.3499 16 10.3499C15.5306 10.3499 15.15 10.7305 15.15 11.1999V13.7623L12.0432 13.7623L10.338 10.7782ZM15.15 18.5624V15.0373H12.7718L14.7861 18.5624H15.15ZM12.8282 18.5624L10.8138 15.0373H10.45V18.5624H12.8282Z" fill="white"></path></svg>