<svg viewBox="0 0 31 32" fill="none" xmlns="http://www.w3.org/2000/svg"><path fill-rule="evenodd" clip-rule="evenodd" d="M25.8723 11.2L27.3853 9.74545C31.1678 13.2364 31.1678 18.7636 27.3853 22.1091L25.8723 20.6545C28.5957 17.8909 28.5957 13.8182 25.8723 11.2ZM22.695 14.2545L24.208 12.8C26.0236 14.6909 26.0236 17.3091 24.208 19.0545L22.695 17.6C23.4515 16.5818 23.4515 15.2727 22.695 14.2545ZM3.026 0H18.156C19.8203 0 21.182 1.30909 21.182 2.90909V29.0909C21.182 30.6909 19.8203 32 18.156 32H3.026C1.3617 32 0 30.6909 0 29.0909V2.90909C0 1.30909 1.3617 0 3.026 0ZM3.026 27.6364H18.156V4.36364H3.026V27.6364ZM9.93305 11.7388C9.77004 11.7996 9.6211 11.8907 9.4948 12.0069L6.45357 14.8796C6.19645 15.1268 6.052 15.462 6.052 15.8116C6.052 16.1612 6.19645 16.4965 6.45357 16.7436C6.71069 16.9908 7.05942 17.1297 7.42305 17.1297C7.78667 17.1297 8.1354 16.9908 8.39252 16.7436L9.10967 15.9904V20.5738C9.10967 20.9125 9.24959 21.2372 9.49864 21.4766C9.7477 21.7161 10.0855 21.8506 10.4377 21.8506C10.7899 21.8506 11.1277 21.7161 11.3768 21.4766C11.6258 21.2372 11.7658 20.9125 11.7658 20.5738V15.9904L12.4829 16.7436C12.74 16.9908 13.0888 17.1297 13.4524 17.1297C13.816 17.1297 14.1647 16.9908 14.4219 16.7436C14.679 16.4965 14.8234 16.1612 14.8234 15.8116C14.8234 15.462 14.679 15.1268 14.4219 14.8796L11.3806 12.0069C11.2543 11.8907 11.1054 11.7996 10.9424 11.7388C10.7834 11.6713 10.6115 11.6364 10.4377 11.6364C10.2639 11.6364 10.092 11.6713 9.93305 11.7388Z" fill="#F9FBFC"></path></svg>