<svg viewBox="0 0 25 24" fill="none" xmlns="http://www.w3.org/2000/svg"><path d="M20.2119 3.36361L2.74367 8.29055C2.59671 8.332 2.46591 8.41731 2.36874 8.53509C2.27157 8.65287 2.21266 8.79751 2.19989 8.94966C2.18712 9.10182 2.2211 9.25424 2.29728 9.38657C2.37346 9.5189 2.48821 9.62483 2.6262 9.69019L10.6522 13.492C10.8088 13.5661 10.9348 13.6922 11.009 13.8487L14.8107 21.8747C14.8761 22.0127 14.982 22.1275 15.1144 22.2037C15.2467 22.2798 15.3991 22.3138 15.5513 22.301C15.7034 22.2883 15.8481 22.2294 15.9658 22.1322C16.0836 22.035 16.1689 21.9042 16.2104 21.7573L21.1373 4.28904C21.1735 4.16073 21.1749 4.02509 21.1412 3.89609C21.1075 3.76709 21.0401 3.64939 20.9458 3.55512C20.8515 3.46085 20.7339 3.39341 20.6048 3.35975C20.4758 3.32609 20.3402 3.32742 20.2119 3.36361Z" stroke="white" stroke-width="2" stroke-linecap="round" stroke-linejoin="round"></path><path d="M10.8931 13.6067L15.1357 9.36401" stroke="white" stroke-width="2" stroke-linecap="round" stroke-linejoin="round"></path></svg>