<svg viewBox="0 0 28 28" fill="none" xmlns="http://www.w3.org/2000/svg"><path d="M14 27.3333C6.63596 27.3333 0.666626 21.364 0.666626 14C0.666626 6.63596 6.63596 0.666626 14 0.666626C21.364 0.666626 27.3333 6.63596 27.3333 14C27.3333 21.364 21.364 27.3333 14 27.3333ZM14 24.6666C16.8289 24.6666 19.542 23.5428 21.5424 21.5424C23.5428 19.542 24.6666 16.8289 24.6666 14C24.6666 11.171 23.5428 8.45787 21.5424 6.45749C19.542 4.4571 16.8289 3.33329 14 3.33329C11.171 3.33329 8.45787 4.4571 6.45749 6.45749C4.4571 8.45787 3.33329 11.171 3.33329 14C3.33329 16.8289 4.4571 19.542 6.45749 21.5424C8.45787 23.5428 11.171 24.6666 14 24.6666ZM12.6666 18H15.3333V20.6666H12.6666V18ZM15.3333 15.8066V16.6666H12.6666V14.6666C12.6666 14.313 12.8071 13.9739 13.0571 13.7238C13.3072 13.4738 13.6463 13.3333 14 13.3333C14.3787 13.3333 14.7497 13.2257 15.0697 13.0231C15.3897 12.8204 15.6456 12.5311 15.8077 12.1887C15.9697 11.8464 16.0311 11.465 15.9849 11.0891C15.9386 10.7131 15.7866 10.3581 15.5464 10.0652C15.3062 9.77228 14.9878 9.5536 14.6283 9.43458C14.2687 9.31557 13.8827 9.30112 13.5152 9.3929C13.1477 9.48468 12.8138 9.67893 12.5524 9.95305C12.291 10.2272 12.1129 10.5699 12.0386 10.9413L9.42263 10.4173C9.5848 9.60674 9.9593 8.85379 10.5079 8.23541C11.0564 7.61703 11.7593 7.1554 12.5447 6.89772C13.3302 6.64004 14.1699 6.59554 14.9782 6.76878C15.7865 6.94202 16.5342 7.32678 17.1451 7.88373C17.7559 8.44067 18.2079 9.14983 18.4548 9.93871C18.7017 10.7276 18.7347 11.5679 18.5504 12.3737C18.3662 13.1795 17.9712 13.922 17.406 14.5251C16.8407 15.1283 16.1255 15.5705 15.3333 15.8066Z" fill="white"></path></svg>